<svg xmlns="http://www.w3.org/2000/svg" version="1.1" xmlns:xlink="http://www.w3.org/1999/xlink" xmlns:svgjs="http://svgjs.com/svgjs" width="1440" height="900" preserveAspectRatio="none" viewBox="0 0 1440 900"><g mask="url(&quot;#SvgjsMask1000&quot;)" fill="none"><rect width="1440" height="900" x="0" y="0" fill="#1e3266"></rect><path d="M1464 900L0 900 L0 422.02Q40.11 342.13, 120 382.23Q154.76 296.99, 240 331.75Q293 264.75, 360 317.74Q449.66 287.4, 480 377.07Q553.51 330.58, 600 404.09Q628.06 360.15, 672 388.22Q726.84 323.06, 792 377.9Q830.54 296.44, 912 334.98Q951.7 254.69, 1032 294.39Q1077.2 219.6, 1152 264.8Q1240.68 233.49, 1272 322.17Q1359.22 337.39, 1344 424.62Q1343.7 304.33, 1464 304.03z" fill="rgba(209, 211, 224, 1)"></path><path d="M1536 900L0 900 L0 512.14Q71.83 463.97, 120 535.81Q127.46 471.26, 192 478.72Q186.61 401.33, 264 395.94Q325.64 337.58, 384 399.22Q518.63 413.85, 504 548.48Q481.61 454.09, 576 431.69Q594.27 377.96, 648 396.23Q732.94 361.17, 768 446.11Q793.73 399.84, 840 425.56Q861.56 375.13, 912 396.69Q956.41 369.1, 984 413.51Q1075.67 433.18, 1056 524.85Q1049.2 398.06, 1176 391.26Q1243.34 338.6, 1296 405.93Q1423.7 413.63, 1416 541.34Q1485.28 490.62, 1536 559.9z" fill="rgba(24, 47, 93, 1)"></path><path d="M1488 900L0 900 L0 601.5Q42.26 571.76, 72 614.02Q114.88 536.9, 192 579.79Q198.69 514.48, 264 521.17Q329.88 467.05, 384 532.93Q438.38 515.3, 456 569.68Q538.9 580.58, 528 663.48Q525 540.48, 648 537.47Q674.32 491.79, 720 518.11Q803.94 482.05, 840 565.98Q963.41 569.39, 960 692.81Q912.09 572.9, 1032 524.99Q1173.12 546.11, 1152 687.23Q1139.93 555.16, 1272 543.09Q1297.45 496.55, 1344 522Q1397.44 503.44, 1416 556.88Q1480.67 549.55, 1488 614.22z" fill="rgba(37, 70, 125, 1)"></path><path d="M1512 900L0 900 L0 796.97Q14.45 691.42, 120 705.87Q149.13 663, 192 692.14Q249.5 677.64, 264 735.14Q287.77 686.91, 336 710.69Q377.08 679.77, 408 720.84Q437.52 630.37, 528 659.89Q573.03 632.92, 600 677.96Q713.4 671.37, 720 784.77Q773.44 766.21, 792 819.65Q796.32 703.97, 912 708.29Q942.7 618.99, 1032 649.69Q1083.88 629.57, 1104 681.45Q1197.15 702.61, 1176 795.76Q1136.73 684.49, 1248 645.21Q1368.88 694.1, 1320 814.98Q1312.18 687.16, 1440 679.34Q1468.99 636.33, 1512 665.32z" fill="rgba(53, 108, 177, 1)"></path><path d="M1464 900L0 900 L0 813.68Q115.05 808.73, 120 923.78Q146.19 877.97, 192 904.16Q238.44 830.6, 312 877.04Q378.94 823.98, 432 890.92Q443.98 830.89, 504 842.87Q530.57 797.44, 576 824.01Q612.65 740.66, 696 777.31Q771.27 732.58, 816 807.85Q933.05 804.9, 936 921.96Q953.31 867.27, 1008 884.57Q1054.71 859.29, 1080 906Q1115.6 821.6, 1200 857.2Q1198.95 784.15, 1272 783.1Q1329.97 769.07, 1344 827.04Q1438.22 801.26, 1464 895.48z" fill="white"></path></g><defs><mask id="SvgjsMask1000"><rect width="1440" height="900" fill="#ffffff"></rect></mask></defs></svg>